<svg xmlns="http://www.w3.org/2000/svg" viewBox="0 0 24 24" width="24" height="24">
  <g transform="scale(0.267)">
    <!-- Top arrow (pointing right with curve) -->
    <path d="M 71.83,42.3 66.2,36.67 78.75,24.13 66.2,11.58 71.83,5.96 90,24.13 Z" fill="#7DDDC9"/>
    <path d="M 9.606 43.432 H 1.648 c 0 -12.839 10.445 -23.285 23.285 -23.285 h 59.44 v 7.958 h -59.44 C 16.481 28.105 9.606 34.981 9.606 43.432 z" fill="#7DDDC9"/>

    <!-- Bottom arrow (pointing left with curve) -->
    <path d="M 18.17,84.04 0,65.87 18.17,47.7 23.8,53.33 11.25,65.87 23.8,78.42 Z" fill="#7DDDC9"/>
    <path d="M 65.067 69.853 H 5.627 v -7.958 h 59.44 c 8.452 0 15.327 -6.875 15.327 -15.327 h 7.958 C 88.352 59.408 77.906 69.853 65.067 69.853 z" fill="#7DDDC9"/>
  </g>
</svg>
